# xmcd
#
# Track frame offsets:
#	150
#	10845
#	25855
#	36482
#	49082
#	63647
#	75805
#	89935
#	101750
#	113647
#	126735
#	141482
#
# Disc length: 2022 seconds
#
# Revision: 0
# Processed by: cddbd v1.4PL0 Copyright (c) Steve Scherf et al.
# Submitted via: dBpowerAMP V4.0
#
DISCID=ab07e40c
DTITLE=Pearl Bailey - Some of the Best
DYEAR=1996
DGENRE=Oldies
TTITLE0=As Long As I Live
TTITLE1=Tired
TTITLE2=I've Got You Under My Skin
TTITLE3=Easy Street
TTITLE4=Personality +
TTITLE5=Alla En El Rancho Grande
TTITLE6=World Weary
TTITLE7=Hit The Road To Dreamland
TTITLE8=I Love My Argentine
TTITLE9=When The World Was Young
TTITLE10=Supper Time
TTITLE11=In Spain They Say Si, Si
EXTD=
EXTT0=
EXTT1=
EXTT2=
EXTT3=
EXTT4=
EXTT5=
EXTT6=
EXTT7=
EXTT8=
EXTT9=
EXTT10=
EXTT11=
PLAYORDER=
